<svg xmlns="http://www.w3.org/2000/svg" viewBox="0 0 59.58 82.56"><defs><style>.cls-1{fill:#8cc63f;}</style></defs><title>Recurso 302</title><g id="Capa_2" data-name="Capa 2"><g id="Capa_3" data-name="Capa 3"><path class="cls-1" d="M0,45.61q0-14.5,0-29a7.75,7.75,0,0,1,8-8c1.7,0,3.39,0,5.09,0,.62,0,.85-.21.93-.81.22-1.55.92-2.12,2.5-2.13s3.23,0,4.85,0a1,1,0,0,0,1.12-.77A7.52,7.52,0,0,1,28.78.07a7.62,7.62,0,0,1,7.4,3.21A5.21,5.21,0,0,1,37,4.84c.22.7.64.87,1.32.85,1.61,0,3.23,0,4.85,0a2.11,2.11,0,0,1,2.34,2c.08.76.43.88,1.1.89a45,45,0,0,1,6.53.14,7.68,7.68,0,0,1,6.4,7.54q0,25.93,0,51.87c0,2.24,0,4.47,0,6.71a7.65,7.65,0,0,1-7.72,7.68q-22.06,0-44.11,0A7.66,7.66,0,0,1,0,74.78Q0,60.2,0,45.61Zm5.27,0q0,14.38,0,28.76c0,2,.92,2.95,2.89,3H51.47a2.7,2.7,0,0,0,2.07-.72,3,3,0,0,0,.76-2.22q0-12.2,0-24.4,0-16.6,0-33.21c0-1.73-.89-2.78-2.53-2.84-1.83-.07-3.66,0-5.49,0-.5,0-.67.24-.66.7s0,1,0,1.53c-.1,1.86-.89,2.6-2.76,2.6H16.58A2.28,2.28,0,0,1,14,16.35a12.16,12.16,0,0,1,0-1.69c0-.59-.22-.81-.81-.8-1.56,0-3.12,0-4.69,0-2.27,0-3.19.92-3.19,3.18Q5.27,31.3,5.27,45.56ZM29.74,14.25h0c3.5,0,7,0,10.5,0,.62,0,.89-.19.86-.83s0-1.51,0-2.26c0-1,0-1.06-1-1.06-1.4,0-2.8,0-4.2,0a2.33,2.33,0,0,1-2.66-2.32,4.72,4.72,0,0,0-.34-1.41A3.4,3.4,0,0,0,29.18,4.5a3.33,3.33,0,0,0-2.76,2.88c-.32,2.18-1,2.74-3.2,2.73-1.27,0-2.53,0-3.8,0-.76,0-1,.27-1,1a18.64,18.64,0,0,1,0,2.26c0,.72.25.92.94.91C22.85,14.23,26.3,14.25,29.74,14.25Z"/><path class="cls-1" d="M36.66,26.91h8.15a8.19,8.19,0,0,1,1.28.1,2.18,2.18,0,0,1,0,4.3,42,42,0,0,1-5.4.1c-4.09,0-8.18,0-12.27,0A8.91,8.91,0,0,1,27,31.31a2.18,2.18,0,0,1,0-4.3,49.53,49.53,0,0,1,5.48-.11c1.37,0,2.74,0,4.12,0Z"/><path class="cls-1" d="M36.3,62.65c2.93,0,5.86,0,8.79,0,1.36,0,2.29.43,2.68,1.38a2.18,2.18,0,0,1-1.56,3,10.12,10.12,0,0,1-2.25.12H28.12A5.61,5.61,0,0,1,26.84,67a2.13,2.13,0,0,1-1.63-2.37,2.09,2.09,0,0,1,2.05-1.9c1.91,0,3.82,0,5.72,0H36.3Z"/><path class="cls-1" d="M36.58,50.77c3,0,6,0,9,0a2.18,2.18,0,0,1,2.31,2.42,2.21,2.21,0,0,1-2.4,2c-3,0-6,0-9,0s-5.92,0-8.88,0a2.23,2.23,0,1,1,0-4.44Z"/><path class="cls-1" d="M36.58,43.27c-3,0-6,0-9,0a2.16,2.16,0,0,1-2.32-2.08,2.24,2.24,0,0,1,2.47-2.36c3.12,0,6.24,0,9.37,0,2.83,0,5.65,0,8.48,0a2.23,2.23,0,1,1,0,4.44h-9Z"/><path class="cls-1" d="M22.86,24.58a1.75,1.75,0,0,1-.41,1.05c-1.68,2.24-3.35,4.48-5,6.7a1.43,1.43,0,0,1-2.49.06C14,31.2,13,30,12.15,28.73A1.41,1.41,0,0,1,14.37,27c.4.47.76,1,1.13,1.47.62.84.62.84,1.23,0,1-1.37,2.07-2.75,3.11-4.12a5.06,5.06,0,0,1,.74-.84A1.25,1.25,0,0,1,22,23.33,1.45,1.45,0,0,1,22.86,24.58Z"/><path class="cls-1" d="M16.18,68.31a1.53,1.53,0,0,1-1.26-.65C14,66.42,13,65.19,12.12,63.92a1.41,1.41,0,0,1,2.23-1.71A20.47,20.47,0,0,1,15.72,64c.3.43.48.46.81,0,1.06-1.46,2.16-2.88,3.24-4.32.18-.24.35-.48.55-.69a1.38,1.38,0,0,1,2-.22,1.35,1.35,0,0,1,.22,1.94c-1,1.35-2,2.67-3,4l-2.18,2.9A1.55,1.55,0,0,1,16.18,68.31Z"/><path class="cls-1" d="M22.86,36.51a2.05,2.05,0,0,1-.48,1.13c-1.62,2.15-3.23,4.31-4.86,6.45-.93,1.23-1.87,1.21-2.8,0q-1.2-1.57-2.38-3.16c-.68-.92-.64-1.72.09-2.27s1.5-.35,2.2.56l0,.06c.51.57.83,1.66,1.48,1.67s.94-1.06,1.4-1.65c.9-1.17,1.77-2.37,2.68-3.55a1.35,1.35,0,0,1,1.64-.54A1.46,1.46,0,0,1,22.86,36.51Z"/><path class="cls-1" d="M22.86,48.14a1.87,1.87,0,0,1-.4,1.06c-1.68,2.23-3.35,4.48-5.06,6.69a1.42,1.42,0,0,1-2.54,0c-.89-1.12-1.74-2.26-2.58-3.41-.64-.88-.55-1.67.17-2.19s1.45-.32,2.1.49a18.53,18.53,0,0,1,1.11,1.49c.33.5.54.52.91,0,1.18-1.61,2.39-3.18,3.6-4.77A1.43,1.43,0,0,1,22,46.9,1.44,1.44,0,0,1,22.86,48.14Z"/></g></g></svg>