<svg xmlns="http://www.w3.org/2000/svg" viewBox="0 0 100 127.65"><defs><style>.cls-1{fill:#00008e;}.cls-2{fill:#fff;}</style></defs><title>Recurso 332</title><g id="Capa_2" data-name="Capa 2"><g id="Capa_3" data-name="Capa 3"><path class="cls-1" d="M100,50A50,50,0,1,0,40.92,99.16l8,27.69a1.12,1.12,0,0,0,2.14,0l8.05-27.7A50,50,0,0,0,100,50Z"/><path class="cls-2" d="M77.89,49.54c0,6.61,0,13.22,0,19.83,0,3-.82,5.37-4.07,6.18-.62.15-.65.62-.65,1.12,0,1.14,0,2.28,0,3.41a4.53,4.53,0,0,1-4.32,4.73,22.05,22.05,0,0,1-5.76,0,4.42,4.42,0,0,1-4-4.47c0-1.14,0-2.28,0-3.41,0-.85-.35-1.16-1.18-1.16q-7.94,0-15.89,0c-.92,0-1.23.41-1.21,1.28A18.59,18.59,0,0,1,40.61,81a4.44,4.44,0,0,1-3.76,3.7,19.34,19.34,0,0,1-6.66-.08,4.23,4.23,0,0,1-3.41-3.42,19.32,19.32,0,0,1-.19-4.45,1.19,1.19,0,0,0-1-1.38A4.54,4.54,0,0,1,22,71.2c-.05-.52-.13-1-.13-1.57q0-19.76,0-39.52c0-5.91,2.4-10.46,7.59-13.46A14.69,14.69,0,0,1,37,15.08c8.88-.05,17.77-.14,26.65,0,8.5.15,14.24,6.22,14.26,14.77,0,6.56,0,13.13,0,19.69Zm-28-20.23c-7.13,0-14.26,0-21.4,0-1.09,0-1.56.24-1.55,1.45Q27,43,26.9,55.29c0,1.17.4,1.49,1.52,1.48q21.53,0,43.05,0c1.25,0,1.54-.42,1.54-1.59Q72.95,43,73,30.9c0-1.29-.4-1.62-1.65-1.61C64.19,29.34,57,29.31,49.84,29.31Zm.17-5h6.41c2.52,0,2.47,0,2.52-2.56,0-1.24-.36-1.69-1.64-1.67-4.46.06-8.91,0-13.37,0-3.52,0-3-.58-3.09,3.16,0,.81.27,1.05,1.06,1C44.6,24.25,47.3,24.27,50,24.27ZM68.48,61.83A4.31,4.31,0,0,0,64,66.11a4.46,4.46,0,1,0,8.91.09A4.34,4.34,0,0,0,68.48,61.83Zm-37.08,0a4.28,4.28,0,0,0-4.47,4.32,4.42,4.42,0,0,0,4.47,4.51,4.32,4.32,0,0,0,4.37-4.44A4.2,4.2,0,0,0,31.4,61.83Z"/><path class="cls-2" d="M79.33,40.63c0-1.92,0-3.84,0-5.77,0-.89.34-1.21,1.23-1.26,2.29-.13,3.83.68,3.69,3.48s0,5.33,0,8a3.18,3.18,0,0,1-4.42,2.59c-.51-.26-.44-.71-.45-1.13C79.33,44.56,79.33,42.6,79.33,40.63Z"/><path class="cls-2" d="M20.62,40.79c0,1.88,0,3.75,0,5.63,0,1-.36,1.3-1.31,1.32-2.84.06-3.56-.61-3.56-3.48,0-2.58,0-5.15,0-7.73a3.07,3.07,0,0,1,4.32-2.85c.59.24.54.74.54,1.21C20.63,36.86,20.62,38.83,20.62,40.79Z"/></g></g></svg>