<svg xmlns="http://www.w3.org/2000/svg" viewBox="0 0 94 94.05"><defs><style>.cls-1{fill:#8cc63f;}.cls-2{fill:none;}</style></defs><title>Recurso 302</title><g id="Capa_2" data-name="Capa 2"><g id="Index"><path class="cls-1" d="M18.85,85c.16.17.31.37.56.4l.17-.17q-.87-.63-1.72-1.3C18.19,84.27,18.51,84.64,18.85,85Z"/><path class="cls-1" d="M74.38,85.55a11.58,11.58,0,0,0,2.12-1.92q-1.12.91-2.3,1.74Z"/><path class="cls-2" d="M58.59,76.16a5.63,5.63,0,0,1-2.92-4.87c-.1-2.05,0-4.12-.07-6.17a1.39,1.39,0,0,1,.32-.85A36,36,0,0,0,61,53.73a1.2,1.2,0,0,1,.61-.83,5,5,0,0,0,2.68-4.83q0-2.85,0-5.7a5.58,5.58,0,0,0-1.15-3.67,1.36,1.36,0,0,1-.32-.93c0-3.07,0-6.15,0-9.22.17-6.18-2.9-11.23-8.11-13a23.4,23.4,0,0,0-15.46,0c-4.9,1.66-8,6.17-8.11,11.93-.08,3.35,0,6.71,0,10.07a1.7,1.7,0,0,1-.34,1.21,5.25,5.25,0,0,0-1.12,3.48c0,2,0,3.93,0,5.89A5.22,5.22,0,0,0,31.15,52a2.65,2.65,0,0,1,.77,1.41A33.87,33.87,0,0,0,36.6,64.26a1.93,1.93,0,0,1,.31,1.14c0,1.55,0,3.11,0,4.66a6.42,6.42,0,0,1-3.23,6.14C29.76,78.56,25.87,81,22,83.41a11.46,11.46,0,0,0-2.38,1.81,46.95,46.95,0,0,0,54.61.16,11.25,11.25,0,0,0-2.55-1.82C67.29,81.09,62.93,78.64,58.59,76.16Z"/><path class="cls-1" d="M61,2.16A46.2,46.2,0,0,0,33.3,2.09C12.78,8.63,0,29.31,0,47.05A46.9,46.9,0,0,0,17.86,83.92q.84.67,1.72,1.3A11.46,11.46,0,0,1,22,83.41c3.9-2.41,7.79-4.85,11.72-7.22a6.42,6.42,0,0,0,3.23-6.14c0-1.55,0-3.1,0-4.66a1.93,1.93,0,0,0-.31-1.14,33.87,33.87,0,0,1-4.68-10.85A2.65,2.65,0,0,0,31.15,52a5.22,5.22,0,0,1-1.45-3.9c0-2,0-3.93,0-5.89a5.25,5.25,0,0,1,1.12-3.48,1.7,1.7,0,0,0,.34-1.21c0-3.36-.08-6.72,0-10.07.13-5.76,3.21-10.26,8.11-11.93a23.4,23.4,0,0,1,15.46,0c5.21,1.78,8.28,6.83,8.11,13-.09,3.07,0,6.14,0,9.22a1.36,1.36,0,0,0,.32.93,5.58,5.58,0,0,1,1.15,3.67q0,2.85,0,5.7a5,5,0,0,1-2.68,4.83,1.2,1.2,0,0,0-.61.83,36,36,0,0,1-5.06,10.54,1.39,1.39,0,0,0-.32.85c0,2.06,0,4.12.07,6.17a5.63,5.63,0,0,0,2.92,4.87c4.34,2.48,8.7,4.93,13.05,7.4a11.25,11.25,0,0,1,2.55,1.82q1.18-.84,2.3-1.74A46.9,46.9,0,0,0,94,47.05C94,29.43,81.39,8.79,61,2.16Z"/></g></g></svg>