<svg xmlns="http://www.w3.org/2000/svg" viewBox="0 0 58.98 83"><defs><style>.cls-1{fill:#8cc63f;}</style></defs><title>Recurso 312</title><g id="Capa_2" data-name="Capa 2"><g id="Capa_3" data-name="Capa 3"><path class="cls-1" d="M26.25,0h6.64C36.52.89,40,2.19,42.5,5.08a4.22,4.22,0,0,0,3.32,1.64,2.59,2.59,0,0,1,2.8,2.16c.22,1,.89,1.35,1.88,1.34,1.72,0,3.44,0,5.16,0a3.09,3.09,0,0,1,3,1.44c.69,1.2.19,2.25-.48,3.26A22.67,22.67,0,0,1,52.85,21c-3.9,2.8-4.58,6.49-4.07,10.78a1.84,1.84,0,0,1,0,.37c-.13,1.56.55,2.27,2.15,2.2,1.29-.06,2.58,0,3.87,0,1.54,0,3.18,0,4,1.73s-.42,2.79-1.24,4c-.31.46-.69.86-1,1.29A75.1,75.1,0,0,1,50,48.12a3.12,3.12,0,0,0-1.18,2.39c0,2.09,0,4.18,0,6.27,0,1.37.66,1.84,1.94,1.81,1.72,0,3.44-.06,5.16,0,2.84.15,3.9,2.19,2.39,4.56a22.9,22.9,0,0,1-5.14,6c-3.56,2.73-5,6.06-4.39,10.47A3.3,3.3,0,0,1,47.27,83H11.49a4.23,4.23,0,0,1-1.21-3.36c0-.8-.09-1.61,0-2.39A6.44,6.44,0,0,0,7.73,71,37.91,37.91,0,0,1,.86,63.33c-1.7-2.54-.62-4.59,2.46-4.73,1.47-.07,3,0,4.43,0,2.5,0,2.54-.06,2.55-2.63,0-1.6-.07-3.2,0-4.79A3.76,3.76,0,0,0,8.9,47.93,50.6,50.6,0,0,1,.84,39.09c-1.68-2.47-.68-4.48,2.32-4.7,1.71-.13,3.44-.1,5.16-.06,1.39,0,2-.53,2-2-.06-1.78-.07-3.57,0-5.35a3.79,3.79,0,0,0-1.38-3.22A54.75,54.75,0,0,1,1,15.1c-.72-1-1.39-2.08-.65-3.4a3.19,3.19,0,0,1,3.15-1.49c1.72,0,3.44,0,5.16,0,.79,0,1.49-.11,1.65-1.07.31-1.77,1.51-2.41,3.17-2.46a2.92,2.92,0,0,0,2.33-.9C18.53,2.5,22.21.91,26.25,0ZM21.13,19a8.41,8.41,0,0,0,8.34,8.5,8.47,8.47,0,0,0,.06-16.95A8.39,8.39,0,0,0,21.13,19ZM29.52,51.6a8.4,8.4,0,1,0-8.39-8.37A8.18,8.18,0,0,0,29.52,51.6ZM21.13,67.37a8.32,8.32,0,0,0,8.31,8.5,8.4,8.4,0,1,0,.15-16.8A8.19,8.19,0,0,0,21.13,67.37Z"/></g></g></svg>