<svg xmlns="http://www.w3.org/2000/svg" viewBox="0 0 85 79.51"><defs><style>.cls-1{fill:#3d6300;}</style></defs><title>Recurso 282</title><g id="Capa_2" data-name="Capa 2"><g id="Capa_3" data-name="Capa 3"><path class="cls-1" d="M39,0H45.8c.1.26.33.17.5.18A37.76,37.76,0,0,1,59,3.56Q80.39,13.79,84.52,38.25A16,16,0,0,0,85,41.48v7c-.24.11-.15.35-.18.54-.18,1.39-.29,2.8-.54,4.17A45.54,45.54,0,0,1,73,76.26a17.47,17.47,0,0,1-3.45,3.24,10.47,10.47,0,0,0-2.7-1.85c-4.3-2.28-8.61-4.54-12.9-6.84a5.17,5.17,0,0,1-2.89-4.5c-.1-1.9,0-3.8-.07-5.71a1.24,1.24,0,0,1,.32-.79,32.38,32.38,0,0,0,5-9.74,1.11,1.11,0,0,1,.6-.77,4.54,4.54,0,0,0,2.65-4.47q0-2.64,0-5.27a4.94,4.94,0,0,0-1.13-3.39,1.2,1.2,0,0,1-.32-.86c0-2.84,0-5.68,0-8.52.17-5.71-2.87-10.38-8-12a24.64,24.64,0,0,0-15.28,0,11.38,11.38,0,0,0-8,11c-.07,3.1,0,6.21,0,9.31a1.5,1.5,0,0,1-.34,1.12,4.65,4.65,0,0,0-1.11,3.22c0,1.82,0,3.63,0,5.45a4.66,4.66,0,0,0,1.43,3.6,2.41,2.41,0,0,1,.76,1.3,30.31,30.31,0,0,0,4.63,10,1.7,1.7,0,0,1,.3,1.05c0,1.43,0,2.87,0,4.3a5.85,5.85,0,0,1-3.19,5.67c-3.88,2.19-7.72,4.44-11.58,6.68a10.54,10.54,0,0,0-2.52,1.83,1,1,0,0,1-.55-.37C3.1,67.86-1.75,54.07.56,37.71A43.78,43.78,0,0,1,15.86,9.93,40.6,40.6,0,0,1,35.28.65,20.56,20.56,0,0,0,39,0Z"/></g></g></svg>