<svg xmlns="http://www.w3.org/2000/svg" viewBox="0 0 73.09 83.41"><defs><style>.cls-1{fill:#8cc63f;}</style></defs><title>Recurso 292</title><g id="Capa_2" data-name="Capa 2"><g id="Capa_3" data-name="Capa 3"><path class="cls-1" d="M36.53,0A35.77,35.77,0,0,1,61.75,10.13a35.58,35.58,0,0,1,11,21.54,35.38,35.38,0,0,1-3,20.05A36.15,36.15,0,0,1,52.31,69.44,34.35,34.35,0,0,1,36.46,73a2.36,2.36,0,0,0-1.35.39Q29.2,77.05,23.26,80.7l-3.61,2.22c-.32.2-.67.61-1,.44s-.16-.71-.15-1.08c.11-4.3.23-8.6.38-12.9a1.37,1.37,0,0,0-.8-1.41,36.34,36.34,0,0,1-13.63-14A35.11,35.11,0,0,1,.34,41.49,36.57,36.57,0,0,1,22.61,2.74,35.37,35.37,0,0,1,36.53,0Zm.11,16.39v0c-1.37,0-2.73,0-4.1,0-.34,0-.82,0-.73.55.13,1,.07,1.91.12,2.87.26,4.75.53,9.5.78,14.25q.24,4.64.43,9.28c0,.54.24.71.75.7,1.78,0,3.56,0,5.33,0,.64,0,.82-.25.85-.85.12-3.12.27-6.23.42-9.35.27-5.57.53-11.14.83-16.71,0-.63-.2-.79-.77-.78C39.24,16.41,37.94,16.4,36.64,16.4ZM31.2,52.81a5.15,5.15,0,0,0,5.34,5.49,5.17,5.17,0,0,0,5.39-5.46,5.14,5.14,0,0,0-5.29-5.45A5.08,5.08,0,0,0,31.2,52.81Z"/></g></g></svg>